<?xml version="1.0" encoding="utf-8"?>
<svg version="1.1" id="Слой_1" xmlns="http://www.w3.org/2000/svg" x="0px" y="0px" viewBox="0 0 60.3 67.6" style="enable-background:new 0 0 225 67.6;" width="60.3px" xmlns:bx="https://boxy-svg.com" height="67.6px"><defs><bx:export><bx:file format="svg"/></bx:export></defs><style type="text/css">
	.st0{fill:#3B3C93;}
	.st1{fill-rule:evenodd;clip-rule:evenodd;fill:#3B3C93;}
</style><g id="guides"/><g id="Layer_1"><g><g><g/><g><polygon class="st1" points="38.2,0.3 42.6,0.3 42.6,5.9 46.3,5.9 46.3,0.3 51.3,0.3 51.3,5.9 55.6,5.9 55.6,0.3 60.3,0.3 &#xA;&#9;&#9;&#9;&#9;&#9;60.3,25.3 51.1,25.3 51.1,20.1 46.3,20.1 46.3,25.2 38.2,25.3 &#9;&#9;&#9;&#9;"/><polygon class="st1" points="0.1,0.3 9.2,0.3 9.2,14.8 22.1,14.8 22.1,25.3 0,25.3 &#9;&#9;&#9;&#9;"/><polygon class="st1" points="46.2,30.5 46.2,39.8 38.2,39.8 38.2,52.9 23.6,52.9 23.7,39.9 13.5,39.9 13.5,30.5 0,30.5 0,33.5 &#xA;&#9;&#9;&#9;&#9;&#9;0,35 0.1,36.3 0.2,37.6 0.3,38.9 0.6,40.2 0.7,41.3 1,42.5 1.2,43.6 1.5,44.6 1.9,45.6 2.3,46.6 2.8,47.6 3.2,48.5 3.7,49.3 &#xA;&#9;&#9;&#9;&#9;&#9;4.2,50.2 4.8,51.1 5.4,51.9 6,52.7 6.6,53.4 7.3,54.1 8.1,54.9 8.7,55.5 9.5,56.2 10.3,56.9 11.2,57.4 11.9,58.1 12.8,58.6 &#xA;&#9;&#9;&#9;&#9;&#9;13.8,59.2 14.7,59.7 15.6,60.3 16.6,60.8 17.6,61.4 18.7,61.9 18.8,61.9 19.5,62.3 20.1,62.6 20.9,62.9 21.6,63.3 22.2,63.6 &#xA;&#9;&#9;&#9;&#9;&#9;23,64 23.8,64.4 24.4,64.7 25.2,65 26,65.4 26.8,65.7 27.5,66 29.1,66.7 30.8,67.4 32.3,66.7 34,66 35.5,65.4 36.9,64.7 &#xA;&#9;&#9;&#9;&#9;&#9;38.5,64 39.9,63.3 41.3,62.6 42.7,61.9 44,61.3 45.2,60.5 46.6,59.7 47.7,59 48.9,58.2 50,57.4 51,56.5 52,55.6 53,54.6 &#xA;&#9;&#9;&#9;&#9;&#9;53.9,53.8 54.8,52.7 55.5,51.7 56.2,50.6 57,49.3 57.5,48.1 58.1,46.9 58.6,45.5 59.1,44.1 59.4,42.6 59.7,41 60,39.5 &#xA;&#9;&#9;&#9;&#9;&#9;60.2,37.7 60.3,36 60.3,34.1 60.3,30.5 &#9;&#9;&#9;&#9;"/></g></g></g></g></svg>